<?xml version="1.0" encoding="UTF-8" standalone="no"?>
<!-- Created with Inkscape (http://www.inkscape.org/) -->

<svg
   width="988.42627mm"
   height="988.42633mm"
   viewBox="0 0 988.42627 988.42633"
   version="1.1"
   id="svg5"
   inkscape:version="1.2.2 (b0a8486541, 2022-12-01)"
   sodipodi:docname="dociere.svg"
   xml:space="preserve"
   xmlns:inkscape="http://www.inkscape.org/namespaces/inkscape"
   xmlns:sodipodi="http://sodipodi.sourceforge.net/DTD/sodipodi-0.dtd"
   xmlns="http://www.w3.org/2000/svg"
   xmlns:svg="http://www.w3.org/2000/svg"><sodipodi:namedview
     id="namedview7"
     pagecolor="#ffffff"
     bordercolor="#000000"
     borderopacity="0.25"
     inkscape:showpageshadow="2"
     inkscape:pageopacity="0.0"
     inkscape:pagecheckerboard="0"
     inkscape:deskcolor="#d1d1d1"
     inkscape:document-units="mm"
     showgrid="false"
     inkscape:lockguides="false"
     inkscape:zoom="3.6203867"
     inkscape:cx="527.01553"
     inkscape:cy="888.16479"
     inkscape:window-width="1366"
     inkscape:window-height="696"
     inkscape:window-x="0"
     inkscape:window-y="0"
     inkscape:window-maximized="1"
     inkscape:current-layer="layer1" /><defs
     id="defs2" /><g
     inkscape:label="Layer 1"
     inkscape:groupmode="layer"
     id="layer1"
     transform="translate(3145.0428,328.22384)"><rect
       style="fill:#eaeaea;fill-opacity:1;stroke:none;stroke-width:35.5737;stroke-opacity:1"
       id="rect2832-7"
       width="988.42633"
       height="988.42627"
       x="-3145.043"
       y="-328.22382"
       rx="40"
       inkscape:export-filename="dociereLogo9.png"
       inkscape:export-xdpi="6.5785375"
       inkscape:export-ydpi="6.5785375" /><path
       id="path341-5-5"
       style="fill:#000000;fill-opacity:1;stroke-width:5.32921"
       d="m -2652.0866,-107.46676 a 103.64472,97.73156 0 0 0 -84.4339,41.136627 l 75.4886,91.075311 V 56.4896 l -86.4311,-104.273532 a 103.64472,97.73156 0 0 0 -8.2672,38.0485926 103.64472,97.73156 0 0 0 0.1598,4.549671 h -0.4294 v 12.747489 l 94.9719,114.5880094 v 27.98255 l -1.3037,1.08051 -93.6682,-113.014589 v 63.301149 l 94.9719,114.58821 v 30.63859 l -94.9719,-114.58614 v 65.69415 l 94.9719,114.5902 v 30.6365 l -94.9719,-114.58601 v 49.67764 c -3.5043,26.57681 61.6994,115.09333 94.9719,130.24858 v 153.28154 h 19.5507 V 407.17319 c 32.927,-17.66031 92.3006,-98.17154 92.6256,-126.59202 h 0.1449 V 226.7162 l -92.769,111.92991 v -30.63859 l 92.769,-111.92781 v -65.69834 l -92.769,111.93002 V 211.6707 l 92.769,-111.927893 V 36.443706 l -92.769,111.927784 v -30.63861 l 92.769,-111.9277524 v -8.665431 a 103.64472,97.73156 0 0 0 0.2696,-6.875036 103.64472,97.73156 0 0 0 -8.9268,-39.6725726 L -2641.4776,52.07265 V 20.328231 l 72.8976,-87.949534 a 103.64472,97.73156 0 0 0 -83.5031,-39.845457 z"
       inkscape:export-filename="dociereLogo1.png"
       inkscape:export-xdpi="96"
       inkscape:export-ydpi="96" /><rect
       style="fill:none;fill-opacity:1;stroke:#000000;stroke-width:30;stroke-dasharray:none;stroke-opacity:1"
       id="rect1324-06-3"
       width="457.01849"
       height="727.47003"
       x="-2882.9468"
       y="-226.73409"
       rx="249.48936" /></g></svg>
